<?xml version="1.0" standalone="no"?>
<!DOCTYPE svg PUBLIC "-//W3C//DTD SVG 20010904//EN"
 "http://www.w3.org/TR/2001/REC-SVG-20010904/DTD/svg10.dtd">
<svg version="1.0" xmlns="http://www.w3.org/2000/svg"
 width="512.000000pt" height="512.000000pt" viewBox="0 0 512.000000 512.000000"
 preserveAspectRatio="xMidYMid meet">

<g transform="translate(0.000000,512.000000) scale(0.100000,-0.100000)"
fill="silver" stroke="none">
<path d="M2460 4903 c-762 -36 -1440 -423 -1862 -1062 -78 -118 -205 -371
-238 -476 -33 -102 -44 -119 -99 -155 -72 -46 -154 -138 -194 -220 -118 -234
-75 -500 112 -687 l57 -58 17 -100 c34 -194 114 -440 203 -618 346 -692 978
-1158 1744 -1286 200 -33 520 -33 720 0 766 128 1398 594 1744 1286 89 178
169 424 203 618 l17 100 57 58 c187 187 230 453 112 687 -40 82 -122 174 -194
220 -55 36 -66 53 -99 155 -33 105 -160 358 -238 476 -351 531 -879 890 -1497
1017 -160 33 -406 53 -565 45z m332 -439 c614 -79 1132 -426 1442 -967 l27
-47 -93 6 c-250 16 -430 -97 -468 -296 -64 -327 355 -944 683 -1005 20 -4 40
-11 43 -16 3 -5 -8 -55 -25 -111 -197 -680 -753 -1199 -1441 -1344 -861 -181
-1721 235 -2117 1024 -60 120 -142 347 -146 406 -2 27 2 30 43 41 121 32 232
105 345 228 214 234 336 488 339 702 1 105 -23 171 -88 242 -89 98 -211 140
-379 129 l-98 -6 27 47 c195 339 473 605 809 773 354 176 725 242 1097 194z
m-1802 -1441 c0 -17 -74 -151 -123 -222 -29 -42 -83 -108 -121 -148 -81 -86
-122 -103 -196 -84 -82 22 -125 82 -118 166 6 66 33 105 101 144 100 57 309
130 412 144 17 2 33 5 38 6 4 0 7 -2 7 -6z m3275 -20 c163 -40 352 -127 392
-180 33 -43 43 -125 20 -169 -37 -71 -121 -108 -195 -86 -72 22 -231 212 -316
378 -20 38 -36 72 -36 76 0 8 56 1 135 -19z"/>
<path d="M1651 3618 c-64 -14 -135 -88 -149 -154 -13 -62 -1 -124 35 -176 31
-46 111 -88 167 -88 45 0 132 -36 158 -66 29 -33 58 -107 58 -150 0 -56 42
-136 88 -167 93 -64 194 -55 272 23 37 36 50 58 59 98 20 97 -16 261 -84 378
-40 69 -169 193 -240 231 -116 61 -273 92 -364 71z"/>
<path d="M3330 3621 c-139 -19 -257 -78 -361 -181 -113 -111 -170 -225 -189
-377 -14 -110 0 -164 60 -223 78 -78 179 -87 272 -23 46 31 88 111 88 167 0
43 29 117 58 150 26 30 113 66 158 66 56 0 136 42 167 88 95 138 14 316 -153
335 -25 3 -70 2 -100 -2z"/>
<path d="M2396 2549 c-483 -67 -895 -404 -1046 -857 -56 -169 -84 -385 -61
-470 15 -53 64 -110 116 -133 38 -18 98 -19 1155 -19 1057 0 1117 1 1155 19
52 23 101 80 116 133 7 28 9 77 5 138 -23 325 -156 612 -390 838 -182 175
-391 286 -641 337 -96 20 -314 28 -409 14z m326 -433 c99 -19 218 -66 298
-118 81 -52 203 -173 255 -253 41 -62 105 -207 105 -237 0 -17 -46 -18 -820
-18 -774 0 -820 1 -820 18 0 30 64 175 105 237 52 80 174 201 255 253 76 50
198 99 290 117 88 18 242 18 332 1z"/>
</g>
</svg>
